<svg xmlns="http://www.w3.org/2000/svg" xmlns:xlink="http://www.w3.org/1999/xlink" width="20.193mm" height="45.339mm" viewBox="4010 3316 79.5 178.5"><title></title><style type="text/css">
*[layerid="1"] {stroke:#000000;fill:#000000;}
*[layerid="2"] {stroke:#000000;fill:#000000;}
*[layerid="3"] {stroke:#000000;fill:#000000;}
*[layerid="4"] {stroke:#000000;fill:#000000;}
*[layerid="5"] {stroke:#000000;fill:#000000;}
*[layerid="6"] {stroke:#000000;fill:#000000;}
*[layerid="7"] {stroke:#000000;fill:#000000;}
*[layerid="8"] {stroke:#000000;fill:#000000;}
*[layerid="9"] {stroke:#000000;fill:#000000;}
*[layerid="10"] {stroke:#000000;fill:#000000;}
*[layerid="11"] {stroke:#000000;fill:#000000;}
*[layerid="12"] {stroke:#000000;fill:#000000;}
*[layerid="13"] {stroke:#000000;fill:#000000;}
*[layerid="14"] {stroke:#000000;fill:#000000;}
*[layerid="15"] {stroke:#000000;fill:#000000;}
*[layerid="19"] {stroke:#000000;fill:#000000;}
*[layerid="21"] {stroke:#000000;fill:#000000;}
*[layerid="22"] {stroke:#000000;fill:#000000;}
*[layerid="23"] {stroke:#000000;fill:#000000;}
*[layerid="24"] {stroke:#000000;fill:#000000;}
*[layerid="25"] {stroke:#000000;fill:#000000;}
*[layerid="26"] {stroke:#000000;fill:#000000;}
*[layerid="27"] {stroke:#000000;fill:#000000;}
*[layerid="28"] {stroke:#000000;fill:#000000;}
*[layerid="29"] {stroke:#000000;fill:#000000;}
*[layerid="30"] {stroke:#000000;fill:#000000;}
*[layerid="31"] {stroke:#000000;fill:#000000;}
*[layerid="32"] {stroke:#000000;fill:#000000;}
*[layerid="33"] {stroke:#000000;fill:#000000;}
*[layerid="34"] {stroke:#000000;fill:#000000;}
*[layerid="35"] {stroke:#000000;fill:#000000;}
*[layerid="36"] {stroke:#000000;fill:#000000;}
*[layerid="37"] {stroke:#000000;fill:#000000;}
*[layerid="38"] {stroke:#000000;fill:#000000;}
*[layerid="39"] {stroke:#000000;fill:#000000;}
*[layerid="40"] {stroke:#000000;fill:#000000;}
*[layerid="41"] {stroke:#000000;fill:#000000;}
*[layerid="42"] {stroke:#000000;fill:#000000;}
*[layerid="43"] {stroke:#000000;fill:#000000;}
*[layerid="44"] {stroke:#000000;fill:#000000;}
*[layerid="45"] {stroke:#000000;fill:#000000;}
*[layerid="46"] {stroke:#000000;fill:#000000;}
*[layerid="47"] {stroke:#000000;fill:#000000;}
*[layerid="48"] {stroke:#000000;fill:#000000;}
*[layerid="49"] {stroke:#000000;fill:#000000;}
*[layerid="50"] {stroke:#000000;fill:#000000;}
*[layerid="51"] {stroke:#000000;fill:#000000;}
*[layerid="52"] {stroke:#000000;fill:#000000;}
*[layerid="99"] {stroke:#000000;fill:#000000;}
*[layerid="100"] {stroke:#000000;fill:#000000;}
*[layerid="101"] {stroke:#000000;fill:#000000;}
*[layerid="Hole"] {stroke:#000000;fill:#000000;}
*[layerid="DRCError"] {stroke:#000000;fill:#000000;}
*[fill="none"] {fill: none;}
*[stroke="none"] {stroke: none;}
path, polyline, polygon, line {stroke-linecap:round;}
g[c_partid="part_pad"][layerid="1"] ellipse:not([c_etype="pad_outer"]) {fill:#000000;}
g[c_partid="part_pad"][layerid="1"] polygon:not([c_etype="pad_outer"]) {fill:#000000;}
g[c_partid="part_pad"][layerid="1"] polyline:not([c_etype="pad_outer"]) {stroke:#000000;}
g[c_partid="part_pad"][layerid="2"] ellipse:not([c_etype="pad_outer"]) {fill:#000000;}
g[c_partid="part_pad"][layerid="2"] polygon:not([c_etype="pad_outer"]) {fill:#000000;}
g[c_partid="part_pad"][layerid="2"] polyline:not([c_etype="pad_outer"]) {stroke:#000000;}
g[c_partid="part_pad"][layerid="11"] ellipse:not([c_etype="pad_outer"]) {fill:#000000;}
g[c_partid="part_pad"][layerid="11"] polygon:not([c_etype="pad_outer"]) {fill:#000000;}
g[c_partid="part_pad"][layerid="11"] polyline:not([c_etype="pad_outer"]) {stroke:#000000;}
g[c_partid="part_pad"][layerid="11"] circle {fill:#FFFFFF;}
g[c_partid="part_pad"][layerid="11"] > polyline:nth-of-type(2) {stroke:#FFFFFF;}
g[c_partid="part_pad"][layerid="11"][c_shape="ELLIPSE"]  polyline:nth-last-of-type(1) {stroke:#FFFFFF;}
g[c_partid="part_pad"][layerid="11"][c_shape="RECT"]  polyline:nth-last-of-type(1) {stroke:#FFFFFF;}
g[c_partid="part_pad"][layerid="11"][c_shape="POLYGON"]  polyline:nth-last-of-type(1) {stroke:#FFFFFF;}
g[c_partid="part_via"] > * + circle, #gCurParts g[c_partid="part_via"] > * + circle {fill:#FFFFFF;}
g[c_partid="part_pad"] > polygon[c_etype="pad_outer"], #gCurParts g[c_partid="part_pad"] > polygon[c_etype="pad_outer"] {stroke-linejoin: round;stroke-miterlimit: 100;}
g[c_partid="part_hole"] > circle {fill: #FFFFFF;}path, polyline, polygon {stroke-linejoin:round;}
rect, circle, ellipse, polyline, line, polygon, path {shape-rendering:crispEdges;}
</style>
<rect x="4010" y="3316" width="79.5" height="178.5" fill="#FFFFFF" stroke="none"/><path d="M 4045.62604 3450.40091 L 4045.46522 3450.3698 4044.9154 3450.13705 4044.22025 3449.76017 4043.56492 3449.31766 4042.95558 3448.81369 4042.4283 3448.28602 4042.11539 3447.99111 4041.78124 3447.76314 4041.41554 3447.59025 4041.0273 3447.47669 4040.62608 3447.42527 4040.22175 3447.43725 4039.82427 3447.51233 4039.44343 3447.64866 4039.08861 3447.8429 4038.76854 3448.09024 4038.54179 3448.33083 4038.41285 3448.42215 4038.2586 3448.45641 4038.10311 3448.42827 4037.97066 3448.34211 4037.88191 3448.21139 4037.8507 3448.05649 4037.8507 3427.3989 4037.88115 3427.24583 4037.96786 3427.11606 4038.09763 3427.02935 4038.2507 3426.9989 4057.57944 3426.9989 4057.94193 3426.96719 4058.27648 3426.87754 4058.59039 3426.73117 4058.8741 3426.53251 4059.11901 3426.2876 4059.31767 3426.00389 4059.46404 3425.68998 4059.55369 3425.35543 4059.5854 3424.99294 4059.5854 3410.5518 4059.61585 3410.39873 4059.70256 3410.26896 4059.83233 3410.18225 4059.9854 3410.1518 4069.20924 3410.1518 4069.57173 3410.12009 4069.90628 3410.03044 4070.22019 3409.88407 4070.5039 3409.68541 4070.74881 3409.4405 4070.94747 3409.15679 4071.09384 3408.84288 4071.18349 3408.50833 4071.2152 3408.14584 4071.2152 3405.59454 4071.245 3405.44305 4071.32994 3405.31413 4071.45739 3405.22698 4071.60835 3405.19459 4071.76032 3405.22179 4071.9 3405.27617 4071.9 3402.1 4071.6152 3402.1 4071.46213 3402.06955 4071.33236 3401.98284 4071.24565 3401.85307 4071.2152 3401.7 4071.2152 3398.3 4071.24565 3398.14693 4071.33236 3398.01716 4071.46213 3397.93045 4071.6152 3397.9 4071.9 3397.9 4071.9 3394.72383 4071.76032 3394.77821 4071.60835 3394.80541 4071.45739 3394.77302 4071.32994 3394.68587 4071.245 3394.55695 4071.2152 3394.40546 4071.2152 3392.54766 4071.18349 3392.18517 4071.09384 3391.85062 4070.94747 3391.53671 4070.74881 3391.253 4070.5039 3391.00809 4070.22019 3390.80943 4069.90628 3390.66306 4069.57173 3390.57341 4069.20924 3390.5417 4065.5768 3390.5417 4065.42373 3390.51125 4065.29396 3390.42454 4065.20725 3390.29477 4065.1768 3390.1417 4065.20725 3389.98863 4065.29396 3389.85886 4069.57419 3385.57863 4069.66711 3385.48274 4069.94146 3385.16152 4070.01598 3385.06228 4070.2479 3384.7092 4070.30939 3384.6014 4070.49524 3384.22204 4070.54273 3384.10739 4070.67956 3383.70773 4070.71231 3383.58803 4070.79797 3383.17437 4070.81546 3383.05151 4070.8486 3382.63037 4070.8507 3382.49686 4070.8507 3364.00314 4070.8486 3363.86963 4070.81546 3363.44849 4070.79797 3363.32563 4070.71231 3362.91197 4070.67956 3362.79227 4070.54273 3362.39261 4070.49524 3362.27796 4070.30939 3361.8986 4070.2479 3361.7908 4070.01598 3361.43772 4069.94146 3361.33848 4069.66711 3361.01726 4069.57419 3360.92137 4059.93801 3351.28519 4059.8513 3351.15542 4059.82085 3351.00235 4059.82085 3348.02165 4057.70304 3348.02165 4057.56218 3347.99603 4057.43937 3347.92245 4057.35034 3347.81033 4057.30649 3347.67405 4057.31343 3347.53105 4057.45014 3346.94318 4057.52213 3346.31577 4057.52213 3345.68423 4057.45014 3345.05682 4057.31343 3344.46895 4057.30649 3344.32595 4057.35034 3344.18967 4057.43937 3344.07755 4057.56218 3344.00397 4057.70304 3343.97835 4059.82085 3343.97835 4059.82085 3340.4682 4058.31666 3340.4682 4057.95417 3340.49991 4057.61962 3340.58956 4057.30571 3340.73593 4057.022 3340.93459 4056.77709 3341.1795 4056.57843 3341.46321 4056.35724 3341.92451 4056.22929 3342.02903 4056.07002 3342.07293 4055.90659 3342.04871 4055.76689 3341.96052 4055.62213 3341.81984 4055.12202 3341.43419 4054.58121 3341.10807 4054.00674 3340.84572 4053.40612 3340.65057 4052.78716 3340.52515 4052.15795 3340.47111 4051.52667 3340.48914 4050.90157 3340.57902 4050.29078 3340.73957 4049.70228 3340.96869 4049.14373 3341.26341 4048.62242 3341.61987 4048.14514 3342.03344 4047.71811 3342.49872 4047.40048 3342.9359 4047.28733 3343.04094 4047.14283 3343.09531 4046.9885 3343.0909 4046.84733 3343.02837 4046.74037 3342.91704 4046.63229 3342.74887 4046.23252 3342.25998 4045.77963 3341.81984 4045.27952 3341.43419 4044.73871 3341.10807 4044.16424 3340.84572 4043.56362 3340.65057 4042.94466 3340.52515 4042.31545 3340.47111 4041.68417 3340.48914 4041.05907 3340.57902 4040.44828 3340.73957 4039.85978 3340.96869 4039.30123 3341.26341 4038.77992 3341.61987 4038.30264 3342.03344 4037.87561 3342.49872 4037.5044 3343.00964 4037.19386 3343.55954 4036.94802 3344.14126 4036.7701 3344.74721 4036.68921 3345.21464 4036.65016 3345.33057 4036.57791 3345.42927 4032.63494 3349.37224 4032.50517 3349.45895 4032.3521 3349.4894 4032.19903 3349.45895 4032.06926 3349.37224 4031.98255 3349.24247 4031.9521 3349.0894 4031.9521 3340.11746 4031.92039 3339.75497 4031.83074 3339.42042 4031.68437 3339.10651 4031.48571 3338.8228 4031.2408 3338.57789 4030.95709 3338.37923 4030.64318 3338.23286 4030.30863 3338.14321 4029.94614 3338.1115 4021.42 3338.1115 4021.26693 3338.08105 4021.13716 3337.99434 4021.05045 3337.86457 4021.02 3337.7115 4021.02 3327.42 4021.05045 3327.26693 4021.13716 3327.13716 4021.26693 3327.05045 4021.42 3327.02 4032.8479 3327.02 4033.00097 3327.05045 4033.13074 3327.13716 4033.21745 3327.26693 4033.2479 3327.42 4033.2479 3335.44614 4033.27961 3335.80863 4033.36926 3336.14318 4033.51563 3336.45709 4033.71429 3336.7408 4033.9592 3336.98571 4034.24291 3337.18437 4034.55682 3337.33074 4034.89137 3337.42039 4035.25386 3337.4521 4068.38254 3337.4521 4068.74503 3337.42039 4069.07958 3337.33074 4069.39349 3337.18437 4069.6772 3336.98571 4069.92211 3336.7408 4070.12077 3336.45709 4070.26714 3336.14318 4070.35679 3335.80863 4070.3885 3335.44614 4070.3885 3327.42 4070.41895 3327.26693 4070.50566 3327.13716 4070.63543 3327.05045 4070.7885 3327.02 4077.635 3327.02 4077.78807 3327.05045 4077.91784 3327.13716 4078.00455 3327.26693 4078.035 3327.42 4078.035 3395.12709 4077.99595 3395.29947 4077.88643 3395.43819 4077.72782 3395.51617 4077.55109 3395.51819 4077.39074 3395.44385 4077.21047 3395.30484 4076.65433 3394.96948 4076.1 3394.71633 4076.1 3397.9 4077.635 3397.9 4077.78807 3397.93045 4077.91784 3398.01716 4078.00455 3398.14693 4078.035 3398.3 4078.035 3401.7 4078.00455 3401.85307 4077.91784 3401.98284 4077.78807 3402.06955 4077.635 3402.1 4076.1 3402.1 4076.1 3405.28367 4076.65433 3405.03052 4077.21047 3404.69516 4077.39074 3404.55615 4077.55109 3404.48181 4077.72782 3404.48383 4077.88643 3404.56181 4077.99595 3404.70053 4078.035 3404.87291 4078.035 3411.04233 4078.00492 3411.19453 4077.91919 3411.32383 4077.79071 3411.41078 4077.63881 3411.44232 4077.48634 3411.41368 4077.35622 3411.32919 4077.22475 3411.20141 4076.71047 3410.80484 4076.15433 3410.46948 4075.56359 3410.1997 4074.94595 3409.99902 4074.30946 3409.87005 4073.66242 3409.81447 4073.01326 3409.83302 4072.37045 3409.92544 4071.74236 3410.09054 4071.13718 3410.32615 4070.56281 3410.62922 4070.02673 3410.99578 4069.53593 3411.42106 4069.0968 3411.89952 4068.71508 3412.42492 4068.39574 3412.9904 4068.14293 3413.5886 4067.95997 3414.21172 4067.84923 3414.85163 4067.81215 3415.5 4067.84923 3416.14837 4067.95997 3416.78828 4068.14293 3417.4114 4068.39574 3418.0096 4068.71508 3418.57508 4069.07291 3419.06759 4069.12972 3419.1791 4069.1493 3419.3027 4069.1493 3420.0262 4069.11885 3420.17927 4069.03214 3420.30904 4060.49824 3428.84294 4060.36847 3428.92965 4060.2154 3428.9601 4059.19106 3428.9601 4058.82857 3428.99181 4058.49402 3429.08146 4058.18011 3429.22783 4057.8964 3429.42649 4057.65149 3429.6714 4057.45283 3429.95511 4057.30646 3430.26902 4057.21681 3430.60357 4057.1851 3430.96606 4057.1851 3431.9904 4057.15465 3432.14347 4057.06794 3432.27324 4052.08334 3437.25784 4051.95357 3437.34455 4051.8005 3437.375 4050.875 3437.375 4050.875 3438.3005 4050.84455 3438.45357 4050.75784 3438.58334 4049.18694 3440.15425 4049.05717 3440.24095 4048.90409 3440.2714 4048.68971 3440.2714 4048.07348 3440.3448 4047.61895 3440.45464 4047.47534 3440.46273 4047.33814 3440.4195 4047.22511 3440.33053 4047.15086 3440.20733 4047.125 3440.06583 4047.125 3437.375 4044.11483 3437.375 4044.14636 3437.46887 4044.41308 3438.02877 4044.74436 3438.55353 4045.13538 3439.03542 4045.58065 3439.46769 4046.07392 3439.84426 4046.6092 3440.16039 4046.73353 3440.27549 4046.79906 3440.43172 4046.79404 3440.60107 4046.71937 3440.75315 4046.58844 3440.86067 4046.33642 3440.99003 4045.8217 3441.33671 4045.35161 3441.74184 4044.93273 3442.19973 4044.57094 3442.70394 4044.27133 3443.24741 4044.0381 3443.82249 4043.87452 3444.42113 4043.78289 3445.03491 4043.7645 3445.65521 4043.81961 3446.27334 4043.94744 3446.88062 4044.14619 3447.46851 4044.41308 3448.02877 4044.74436 3448.55353 4045.13538 3449.03542 4045.58065 3449.46769 4045.86271 3449.68302 4045.9698 3449.80696 4046.01823 3449.96344 4045.99988 3450.1262 4045.91783 3450.26797 4045.78584 3450.36496 4045.62604 3450.40091 Z M 4067.3743 3343.97835 L 4067.3743 3342.47416 4067.34259 3342.11167 4067.25294 3341.77712 4067.10657 3341.46321 4066.90791 3341.1795 4066.663 3340.93459 4066.37929 3340.73593 4066.06538 3340.58956 4065.73083 3340.49991 4065.36834 3340.4682 4063.86415 3340.4682 4063.86415 3343.97835 4067.3743 3343.97835 Z M 4063.86415 3348.02165 L 4063.86415 3351.5318 4065.36834 3351.5318 4065.73083 3351.50009 4066.06538 3351.41044 4066.37929 3351.26407 4066.663 3351.06541 4066.90791 3350.8205 4067.10657 3350.53679 4067.25294 3350.22288 4067.34259 3349.88833 4067.3743 3349.52584 4067.3743 3348.02165 4063.86415 3348.02165 Z M 4050.875 3430.61881 L 4050.875 3433.625 4053.88181 3433.625 4053.72867 3433.24741 4053.42906 3432.70394 4053.06727 3432.19973 4052.64839 3431.74184 4052.1783 3431.33671 4051.66358 3430.99003 4051.11148 3430.70665 4050.875 3430.61881 Z M 4044.27133 3433.24741 L 4044.11819 3433.625 4047.125 3433.625 4047.125 3430.61881 4046.88852 3430.70665 4046.33642 3430.99003 4045.8217 3431.33671 4045.35161 3431.74184 4044.93273 3432.19973 4044.57094 3432.70394 4044.27133 3433.24741 Z " stroke-width="0" layerid="2" attachedcopperid="gge2004" c_shapetype="line" id="gge2004_0" class=""></path><polyline points="4034 3400 4034 3354.16 4042.16 3346" stroke-width="4.7244"  stroke-linecap="round" fill="none" layerid="2" net="U2_3" id="gge1789" locked="0" /><polyline points="4033.5 3415.5 4066.5 3382.5 4066.5 3364 4052 3349.5 4052 3346" stroke-width="4.7244"  stroke-linecap="round" fill="none" layerid="2" net="U2_2" id="gge1795" locked="0" /><polyline points="4053.5 3467 4053.5 3470 4047.5 3476 4040 3476 4024.95 3460.95 4024.95 3409.05 4034 3400" stroke-width="4.7244"  stroke-linecap="round" fill="none" layerid="2" net="U2_3" id="gge1792" locked="0" /><polyline points="4033.5 3415.5 4033.5 3457 4043.5 3467" stroke-width="4.7244"  stroke-linecap="round" fill="none" layerid="2" net="U2_2" id="gge1798" locked="0" /><polyline points="4049 3445.5 4049.994 3445.5 4073.5 3421.994 4073.5 3415.5" stroke-width="4.7244"  stroke-linecap="round" fill="none" layerid="2" net="R1_1" id="gge1786" locked="0" /><g c_partid="part_pcbtext" c_etype="pinpart" c_origin="4069.771,3398.449" c_rotation="40" c_mirror="1" id="gge1825" locked="0" layerid="2" c_shapetype="group" ><path c_fontsize="8" c_fontfamily="" c_text="10k" d="M 4065.5164 3393.3788 L 4064.7255 3393.5677 L 4063.1886 3393.4333 L 4068.0972 3399.283 M 4059.6788 3396.3784 L 4060.7482 3395.9557 L 4062.0066 3396.3239 L 4063.4538 3397.483 L 4064.155 3398.3186 L 4065.0452 3399.9452 L 4065.1893 3401.2484 L 4064.5873 3402.2281 L 4064.0301 3402.6957 L 4062.9608 3403.1183 L 4061.7024 3402.7501 L 4060.2552 3401.5911 L 4059.554 3400.7554 L 4058.6637 3399.1288 L 4058.5197 3397.8256 L 4059.1216 3396.8459 L 4059.6788 3396.3784 M 4055.6118 3399.791 L 4060.5203 3405.6408 M 4054.4623 3404.0783 L 4059.5854 3404.5265 M 4057.5361 3404.3472 L 4057.4561 3408.2119" fill="none"  stroke-width="0.8"  /></g><g c_partid="part_pcbtext" c_etype="pinpart" c_origin="4057.5,3412" c_rotation="44" c_mirror="1" id="gge1846" locked="0" layerid="2" c_shapetype="group" ><path c_fontsize="8" c_fontfamily="" c_text="220" d="M 4052.8937 3407.7535 L 4052.6411 3407.4919 L 4051.8743 3407.2213 L 4051.3601 3407.2123 L 4050.5843 3407.4559 L 4049.538 3408.4664 L 4049.2674 3409.2331 L 4049.2585 3409.7473 L 4049.5021 3410.5231 L 4050.0073 3411.0462 L 4050.7741 3411.3168 L 4052.0551 3411.5963 L 4057.1969 3411.6861 L 4053.5347 3415.2226 M 4047.5051 3412.957 L 4047.2526 3412.6955 L 4046.4857 3412.425 L 4045.9715 3412.416 L 4045.1958 3412.6596 L 4044.1495 3413.6701 L 4043.8789 3414.4368 L 4043.8699 3414.951 L 4044.1136 3415.7268 L 4044.6188 3416.2499 L 4045.3856 3416.5205 L 4046.6665 3416.8 L 4051.8083 3416.8897 L 4048.1463 3420.4262 M 4039.5457 3418.1158 L 4040.5831 3417.6196 L 4041.864 3417.8991 L 4043.3886 3418.9544 L 4044.1464 3419.7392 L 4045.1478 3421.2996 L 4045.3825 3422.5896 L 4044.8504 3423.609 L 4044.3273 3424.1142 L 4043.2899 3424.6104 L 4042.0089 3424.3308 L 4040.4843 3423.2756 L 4039.7265 3422.4909 L 4038.7251 3420.9303 L 4038.4905 3419.6404 L 4039.0226 3418.6211 L 4039.5457 3418.1158" fill="none"  stroke-width="0.8"  /></g><g c_partid="part_pcbtext" c_etype="pinpart" c_origin="4059.271,3442.949" c_rotation="224" c_mirror="1" id="gge1858" locked="0" layerid="2" c_shapetype="group" ><path c_fontsize="8" c_fontfamily="" c_text="LED" d="M 4064.8782 3448.7557 L 4059.5736 3443.2625 M 4059.5736 3443.2625 L 4062.7125 3440.2313 M 4069.7436 3444.0572 L 4064.4389 3438.5641 M 4069.7436 3444.0572 L 4073.1442 3440.7734 M 4067.2176 3441.4415 L 4069.3103 3439.4206 M 4064.4389 3438.5641 L 4067.8395 3435.2803 M 4074.8706 3439.1062 L 4069.5659 3433.6131 M 4074.8706 3439.1062 L 4076.7016 3437.338 L 4077.2338 3436.3186 L 4077.2517 3435.2902 L 4077.0081 3434.5144 L 4076.5118 3433.4771 L 4075.2488 3432.1693 L 4074.2294 3431.6371 L 4073.4627 3431.3666 L 4072.4343 3431.3486 L 4071.397 3431.8449 L 4069.5659 3433.6131" fill="none"  stroke-width="0.8"  /></g><g c_partid="part_pcbtext" c_etype="pinpart" c_origin="4063.041,3468.897" c_rotation="225" c_mirror="1" id="gge1882" locked="0" layerid="2" c_shapetype="group" ><path c_fontsize="8" c_fontfamily="" c_text="PD" d="M 4068.7493 3474.6055 L 4063.3496 3469.2058 M 4068.7493 3474.6055 L 4071.0635 3472.2914 L 4071.5777 3471.2628 L 4071.5777 3470.7485 L 4071.3206 3469.9772 L 4070.5492 3469.2058 L 4069.7778 3468.9487 L 4069.2636 3468.9487 L 4068.2351 3469.4629 L 4065.9209 3471.7771 M 4074.0462 3469.3086 L 4068.6464 3463.909 M 4074.0462 3469.3086 L 4075.846 3467.5088 L 4076.3604 3466.4802 L 4076.3603 3465.4517 L 4076.1032 3464.6803 L 4075.589 3463.6518 L 4074.3034 3462.3662 L 4073.2748 3461.8519 L 4072.5034 3461.5948 L 4071.4749 3461.5947 L 4070.4464 3462.109 L 4068.6464 3463.909" fill="none"  stroke-width="0.8"  /></g><g c_partid="part_pcbtext" c_etype="pinpart" c_origin="4068,3335.5" c_rotation="0" c_mirror="1" id="gge1894" locked="0" layerid="2" c_shapetype="group" ><path c_fontsize="8" c_fontfamily="" c_text="G V S" d="M 4062.5455 3329.2455 L 4062.9091 3328.5182 L 4063.6364 3327.7909 L 4064.3636 3327.4273 L 4065.8182 3327.4273 L 4066.5455 3327.7909 L 4067.2727 3328.5182 L 4067.6364 3329.2455 L 4068 3330.3364 L 4068 3332.1545 L 4067.6364 3333.2455 L 4067.2727 3333.9727 L 4066.5455 3334.7 L 4065.8182 3335.0636 L 4064.3636 3335.0636 L 4063.6364 3334.7 L 4062.9091 3333.9727 L 4062.5455 3333.2455 L 4062.5455 3332.1545 M 4064.3636 3332.1545 L 4062.5455 3332.1545 M 4054.5455 3327.4273 L 4051.6364 3335.0636 M 4048.7273 3327.4273 L 4051.6364 3335.0636 M 4035.6364 3328.5182 L 4036.3636 3327.7909 L 4037.4545 3327.4273 L 4038.9091 3327.4273 L 4040 3327.7909 L 4040.7273 3328.5182 L 4040.7273 3329.2455 L 4040.3636 3329.9727 L 4040 3330.3364 L 4039.2727 3330.7 L 4037.0909 3331.4273 L 4036.3636 3331.7909 L 4036 3332.1545 L 4035.6364 3332.8818 L 4035.6364 3333.9727 L 4036.3636 3334.7 L 4037.4545 3335.0636 L 4038.9091 3335.0636 L 4040 3334.7 L 4040.7273 3333.9727" fill="none"  stroke-width="0.8"  /></g><g c_partid="part_pcbtext" c_etype="pinpart" c_origin="4030,3340.5" c_rotation="90" c_mirror="1" id="gge1935" locked="0" layerid="2" c_shapetype="group" ><path c_fontsize="8" c_fontfamily="" c_text="KAD-Line" d="M 4021.9273 3340.5 L 4029.5636 3340.5 M 4021.9273 3345.5909 L 4027.0182 3340.5 M 4025.2 3342.3182 L 4029.5636 3345.5909 M 4021.9273 3350.9 L 4029.5636 3347.9909 M 4021.9273 3350.9 L 4029.5636 3353.8091 M 4027.0182 3349.0818 L 4027.0182 3352.7182 M 4021.9273 3356.2091 L 4029.5636 3356.2091 M 4021.9273 3356.2091 L 4021.9273 3358.7545 L 4022.2909 3359.8455 L 4023.0182 3360.5727 L 4023.7455 3360.9364 L 4024.8364 3361.3 L 4026.6545 3361.3 L 4027.7455 3360.9364 L 4028.4727 3360.5727 L 4029.2 3359.8455 L 4029.5636 3358.7545 L 4029.5636 3356.2091 M 4026.2909 3363.7 L 4026.2909 3370.2455 M 4021.9273 3372.6455 L 4029.5636 3372.6455 M 4029.5636 3372.6455 L 4029.5636 3377.0091 M 4021.9273 3379.4091 L 4022.2909 3379.7727 L 4021.9273 3380.1364 L 4021.5636 3379.7727 L 4021.9273 3379.4091 M 4024.4727 3379.7727 L 4029.5636 3379.7727 M 4024.4727 3382.5364 L 4029.5636 3382.5364 M 4025.9273 3382.5364 L 4024.8364 3383.6273 L 4024.4727 3384.3545 L 4024.4727 3385.4455 L 4024.8364 3386.1727 L 4025.9273 3386.5364 L 4029.5636 3386.5364 M 4026.6545 3388.9364 L 4026.6545 3393.3 L 4025.9273 3393.3 L 4025.2 3392.9364 L 4024.8364 3392.5727 L 4024.4727 3391.8455 L 4024.4727 3390.7545 L 4024.8364 3390.0273 L 4025.5636 3389.3 L 4026.6545 3388.9364 L 4027.3818 3388.9364 L 4028.4727 3389.3 L 4029.2 3390.0273 L 4029.5636 3390.7545 L 4029.5636 3391.8455 L 4029.2 3392.5727 L 4028.4727 3393.3" fill="none"  stroke-width="0.8"  /></g><path d="M4057.3762,3474.866 A10.5461,10.5461 0 0 0 4057.2883,3459.2885" locked="0"  fill="none" stroke-width="1.1811" c_helper_type="arc2" net="S$1923" layerid="2" id="gge1922" /><path d="M 4040.5 3450 A 10.7249 10.7249 0 0 0 4056.9376 3449.3467" locked="0"  fill="none" stroke-width="1.1811" c_helper_type="arc2" net="" layerid="2" id="gge1912" /><path d="M 4020.5 3467 L 4020.5 3465.5 L 4022 3467 L 4038 3483 L 4021 3483 L 4020.5 3483 L 4020.5 3483 Z" stroke-width="0"   net="" type="solid" layerid="2" id="gge1959" locked="0" c_teardrop="" c_targetpad="" c_targetwire="" /><path d="M 4055 3477.5 L 4070.5 3477.5 L 4079 3468.5 L 4078.7705 3482.9486 L 4061.7705 3482.9486 L 4061.2705 3482.9486 L 4061.2705 3482.9486 L 4049.5 3483 Z" stroke-width="0"   net="" type="solid" layerid="2" id="gge1968" locked="0" c_teardrop="" c_targetpad="" c_targetwire="" /><path d="M 4079 3439.5 L 4079 3463.5 L 4072.5 3457 L 4063 3466 L 4062 3462 L 4059.5 3458.5 L 4057 3457 L 4051.5 3455.5 L 4056 3453.5 L 4060 3449.5 L 4064 3453.5 Z" stroke-width="0"   net="" type="solid" layerid="2" id="gge1971" locked="0" c_teardrop="" c_targetpad="" c_targetwire="" /><path d="M 4060 3426 L 4057 3429 4043.5 3429 4045 3427.5 4060 3413 4060 3426 Z " stroke-width="0"   net="" type="solid" layerid="2" id="gge2010" locked="0" c_teardrop="" c_targetpad="" c_targetwire="" /><path d="M 4063.5 3411 L 4063.5 3410.5 L 4074 3400 L4074,3406.5 L4070.5,3410  L4071,3410 Z" stroke-width="0"   net="GND" type="solid" layerid="2" id="gge2013" locked="0" c_teardrop="" c_targetpad="" c_targetwire="" /><g c_partid="part_pad" c_etype="pinpart" c_origin="4061.842,3346" layerid="11" number="1" net="GND" plated ="Y"  id="gge516" locked="0" c_rotation="180" c_width="7.874" c_height="7.874" title="GND" c_shape="RECT" pasteexpansion="0" solderexpansion="0.2"><polygon  c_etype="pad_shell" points="4065.779 3349.937 4057.905 3349.937 4057.905 3342.063 4065.779 3342.063" layerid="11" stroke-width="0" /><circle c_etype="pad_hole" cx="4061.8425" cy="3346" r="2.3622" layerid="11" stroke-width="0"/></g><g c_partid="part_pad" c_etype="pinpart" c_origin="4052,3346" layerid="11" number="2" net="U2_2" plated ="Y"  id="gge531" locked="0" c_rotation="180" c_width="7.874" c_height="7.874" title="U2_2" c_shape="ELLIPSE" pasteexpansion="0" solderexpansion="0.2"><ellipse c_etype="pad_shell" cx="4052" cy="3346" rx="3.937" ry="3.937" layerid="11" stroke-width="0"/><circle c_etype="pad_hole" cx="4052" cy="3346" r="2.3622" layerid="11" stroke-width="0"/></g><g c_partid="part_pad" c_etype="pinpart" c_origin="4042.158,3346" layerid="11" number="3" net="U2_3" plated ="Y"  id="gge546" locked="0" c_rotation="180" c_width="7.874" c_height="7.874" title="U2_3" c_shape="ELLIPSE" pasteexpansion="0" solderexpansion="0.2"><ellipse c_etype="pad_shell" cx="4042.158" cy="3346" rx="3.937" ry="3.937" layerid="11" stroke-width="0"/><circle c_etype="pad_hole" cx="4042.1575" cy="3346" r="2.3622" layerid="11" stroke-width="0"/></g><g c_partid="part_pad" c_etype="pinpart" c_origin="4054,3467" layerid="11" number="1" net="U2_3" plated ="Y"  id="gge855" locked="0" c_rotation="180" c_width="7.874" c_height="7.874" title="U2_3" c_shape="ELLIPSE" pasteexpansion="0" solderexpansion="0.4"><ellipse c_etype="pad_shell" cx="4054" cy="3467" rx="3.937" ry="3.937" layerid="11" stroke-width="0"/><circle c_etype="pad_hole" cx="4054" cy="3467" r="1.75" layerid="11" stroke-width="0"/></g><g c_partid="part_pad" c_etype="pinpart" c_origin="4044,3467" layerid="11" number="2" net="U2_2" plated ="Y"  id="gge870" locked="0" c_rotation="180" c_width="7.874" c_height="7.874" title="U2_2" c_shape="ELLIPSE" pasteexpansion="0" solderexpansion="0.4"><ellipse c_etype="pad_shell" cx="4044" cy="3467" rx="3.937" ry="3.937" layerid="11" stroke-width="0"/><circle c_etype="pad_hole" cx="4044" cy="3467" r="1.75" layerid="11" stroke-width="0"/></g><g c_partid="part_pad" c_etype="pinpart" c_origin="4074,3400" layerid="11" number="1" net="GND" plated ="Y"  id="gge1023" locked="0" c_rotation="180" c_width="8.6614" c_height="8.6614" title="GND" c_shape="ELLIPSE" pasteexpansion="0" solderexpansion="0.2"><ellipse c_etype="pad_shell" cx="4074" cy="3400" rx="4.3307" ry="4.3307" layerid="11" stroke-width="0"/><circle c_etype="pad_hole" cx="4074" cy="3400" r="1.77" layerid="11" stroke-width="0"/></g><g c_partid="part_pad" c_etype="pinpart" c_origin="4034,3400" layerid="11" number="2" net="U2_3" plated ="Y"  id="gge1038" locked="0" c_rotation="180" c_width="8.6614" c_height="8.6614" title="U2_3" c_shape="ELLIPSE" pasteexpansion="0" solderexpansion="0.2"><ellipse c_etype="pad_shell" cx="4034" cy="3400" rx="4.3307" ry="4.3307" layerid="11" stroke-width="0"/><circle c_etype="pad_hole" cx="4034" cy="3400" r="1.77" layerid="11" stroke-width="0"/></g><g c_partid="part_pad" c_etype="pinpart" c_origin="4073.5,3415.5" layerid="11" number="1" net="R1_1" plated ="Y"  id="gge1089" locked="0" c_rotation="180" c_width="8.6614" c_height="8.6614" title="R1_1" c_shape="ELLIPSE" pasteexpansion="0" solderexpansion="0.2"><ellipse c_etype="pad_shell" cx="4073.5" cy="3415.5" rx="4.3307" ry="4.3307" layerid="11" stroke-width="0"/><circle c_etype="pad_hole" cx="4073.5" cy="3415.5" r="1.77" layerid="11" stroke-width="0"/></g><g c_partid="part_pad" c_etype="pinpart" c_origin="4033.5,3415.5" layerid="11" number="2" net="U2_2" plated ="Y"  id="gge1104" locked="0" c_rotation="180" c_width="8.6614" c_height="8.6614" title="U2_2" c_shape="ELLIPSE" pasteexpansion="0" solderexpansion="0.2"><ellipse c_etype="pad_shell" cx="4033.5" cy="3415.5" rx="4.3307" ry="4.3307" layerid="11" stroke-width="0"/><circle c_etype="pad_hole" cx="4033.5" cy="3415.5" r="1.77" layerid="11" stroke-width="0"/></g><g c_partid="part_pad" c_etype="pinpart" c_origin="4049,3445.5" layerid="11" number="1" net="R1_1" plated ="Y"  id="gge1353" locked="0" c_rotation="270" c_width="7.874" c_height="7.874" title="R1_1" c_shape="ELLIPSE" pasteexpansion="0" solderexpansion="0.2"><ellipse c_etype="pad_shell" cx="4049" cy="3445.5" rx="3.937" ry="3.937" layerid="11" stroke-width="0"/><circle c_etype="pad_hole" cx="4049" cy="3445.5" r="1.9" layerid="11" stroke-width="0"/></g><g c_partid="part_pad" c_etype="pinpart" c_origin="4049,3435.5" layerid="11" number="2" net="GND" plated ="Y"  id="gge1368" locked="0" c_rotation="270" c_width="7.874" c_height="7.874" title="GND" c_shape="ELLIPSE" pasteexpansion="0" solderexpansion="0.2"><ellipse c_etype="pad_shell" cx="4049" cy="3435.5" rx="3.937" ry="3.937" layerid="11" stroke-width="0"/><circle c_etype="pad_hole" cx="4049" cy="3435.5" r="1.9" layerid="11" stroke-width="0"/></g><g c_partid="part_hole" c_etype="pinpart" c_shapetype="group" c_origin="4050.5,3376" layerid="11" id="gge1182" locked="0" ><circle cx="4050.5" cy="3376" r="6.8898"  stroke-width="1" fill-opacity="0" /></g><polyline points="4020 3326 4079.055 3326 4079.055 3483.48 4020 3483.48 4020 3326" stroke-width="1"  stroke-linecap="round" fill="none" layerid="10" net="" id="gge1404" locked="0" /></svg>